<svg version="1.1" id="Layer_1" xmlns="http://www.w3.org/2000/svg" xmlns:xlink="http://www.w3.org/1999/xlink" x="0px" y="0px"
	 width="100%" viewBox="0 0 200 200" enable-background="new 0 0 200 200" xml:space="preserve">
<path fill="#FEFFFF" opacity="1.000000" stroke="none" 
	d="
M147.000000,201.000000 
	C98.000000,201.000000 49.500008,201.000000 1.000006,201.000000 
	C1.000004,134.333344 1.000004,67.666679 1.000002,1.000015 
	C67.666656,1.000010 134.333313,1.000010 200.999969,1.000005 
	C200.999985,67.666649 200.999985,134.333298 201.000000,200.999969 
	C183.166672,201.000000 165.333328,201.000000 147.000000,201.000000 
M136.767654,93.394638 
	C135.195969,93.653404 133.624268,93.912170 131.111694,94.252426 
	C122.130188,94.324181 113.148682,94.395927 103.459953,94.278847 
	C102.288246,95.168579 101.116539,96.058319 99.394661,97.357262 
	C94.408394,102.819176 88.723618,103.459030 84.257523,99.061028 
	C79.951851,94.820992 80.211823,88.572777 85.327141,83.910141 
	C85.617149,83.790955 85.837364,83.593803 86.775330,83.174149 
	C93.522026,80.904236 97.598747,82.777245 100.794304,89.361588 
	C110.975128,89.361588 120.995483,89.361588 131.659531,89.361588 
	C126.660522,82.132874 120.220551,80.214073 112.520378,81.292969 
	C111.965599,80.285217 111.505569,79.426048 111.024307,78.578957 
	C105.473495,68.808685 95.103142,63.688866 84.653534,65.555840 
	C73.394188,67.567497 64.889351,75.722351 63.600979,87.143013 
	C63.088402,91.686714 61.504086,94.119102 57.702827,96.117371 
	C55.792988,97.121338 54.519276,99.335396 52.364960,101.249626 
	C51.787563,102.382401 51.210167,103.515182 50.111042,105.182343 
	C44.041622,121.035919 53.985165,136.585358 70.666603,136.788300 
	C90.961411,137.035217 111.263130,137.006851 131.558640,136.792755 
	C143.668137,136.665024 152.344666,128.271622 154.039276,115.488235 
	C159.945389,110.479958 161.346817,106.818428 159.227356,101.933250 
	C157.096649,97.022148 153.489258,95.588264 145.819183,96.577148 
	C145.509979,96.617012 145.174622,96.454124 144.249084,95.944931 
	C141.818741,95.347198 139.388397,94.749474 136.767654,93.394638 
M92.923820,97.646393 
	C97.641624,94.429848 98.528862,89.532494 94.393730,87.438690 
	C92.501480,86.480553 89.278000,86.933990 87.242722,87.935272 
	C86.033852,88.529984 85.243240,91.558105 85.532768,93.278748 
	C86.098289,96.639503 88.675896,98.178551 92.923820,97.646393 
M80.021049,151.688934 
	C80.021049,150.468216 80.021049,149.247498 80.021049,146.989365 
	C77.790054,149.014481 76.428947,150.249969 75.111969,151.445419 
	C73.519012,150.060104 72.232475,148.941284 70.788559,147.685593 
	C70.788559,151.471939 70.788559,154.737366 70.788559,158.002808 
	C71.150490,158.016373 71.512413,158.029953 71.874344,158.043518 
	C72.219742,156.729202 72.565140,155.414871 72.869598,154.256348 
	C74.359390,154.256348 75.814362,154.256348 77.376999,154.256348 
	C77.700623,155.398163 78.092613,156.781174 78.484596,158.164169 
	C78.997612,158.127029 79.510628,158.089890 80.023643,158.052750 
	C80.023643,156.225098 80.023643,154.397461 80.021049,151.688934 
M106.366806,148.771515 
	C103.679398,153.515335 104.654129,157.572388 108.863106,157.936951 
	C110.682495,158.094559 113.517265,157.212311 114.302322,155.871994 
	C115.242554,154.266754 115.315125,150.478439 114.281891,149.756805 
	C112.397804,148.440887 109.422447,148.687393 106.366806,148.771515 
M124.680557,151.407318 
	C124.125206,146.034714 120.639351,147.524551 117.113808,148.052277 
	C117.287315,151.590790 117.445824,154.823395 117.604332,158.056015 
	C118.036804,158.081741 118.469276,158.107483 118.901749,158.133209 
	C119.375450,156.880112 119.549377,155.341721 120.400291,154.447586 
	C121.416946,153.379272 123.012840,152.862213 124.680557,151.407318 
M129.882843,147.539886 
	C128.579422,148.662308 127.275986,149.784729 125.972557,150.907150 
	C127.261467,152.395905 128.550385,153.884659 129.959656,155.512436 
	C128.388748,155.793884 127.160187,156.013992 125.931625,156.234116 
	C126.033691,156.826889 126.135750,157.419678 126.237816,158.012451 
	C128.096039,157.576431 129.954269,157.140411 131.812485,156.704376 
	C130.967621,154.571976 130.122757,152.439575 129.200211,150.111099 
	C129.352814,149.831299 129.933990,148.765793 129.882843,147.539886 
M94.029800,154.109558 
	C94.029800,152.014984 94.029800,149.920395 94.029800,147.825821 
	C93.566772,147.812881 93.103737,147.799942 92.640709,147.787003 
	C92.242699,149.086548 91.844688,150.386078 91.024200,153.065033 
	C89.513290,150.706787 88.576599,149.244781 87.548615,147.640289 
	C87.548615,151.535294 87.548615,154.739090 87.548615,157.942871 
	C87.943207,157.906677 88.337807,157.870468 88.732399,157.834274 
	C88.850639,156.405548 88.968872,154.976837 89.143929,152.861572 
	C91.019188,154.979752 92.303558,156.430511 94.034164,158.385300 
	C94.034164,156.622467 94.034164,155.796310 94.029800,154.109558 
M97.090767,147.668045 
	C96.823097,148.159836 96.555420,148.651627 96.287743,149.143417 
	C99.502899,150.146072 98.646217,152.826370 98.799088,155.126801 
	C98.865387,156.124359 99.168098,157.106216 99.363426,158.095200 
	C99.648613,158.100998 99.933800,158.106812 100.218987,158.112610 
	C100.980728,154.767441 101.742477,151.422287 102.617271,147.580673 
	C101.385635,147.580673 99.627274,147.580673 97.090767,147.668045 
z"/>
<path fill="#0B112D" opacity="1.000000" stroke="none" 
	d="
M153.686462,116.123566 
	C152.344666,128.271622 143.668137,136.665024 131.558640,136.792755 
	C111.263130,137.006851 90.961411,137.035217 70.666603,136.788300 
	C53.985165,136.585358 44.041622,121.035919 50.854519,105.024437 
	C59.393555,104.909653 67.195358,104.797867 74.980019,105.111450 
	C76.788498,105.184296 79.032745,106.272781 80.229431,107.636978 
	C85.219719,113.325851 91.840866,114.555824 98.529434,110.770622 
	C100.038475,109.916618 101.830826,109.096306 103.503616,109.073997 
	C114.782997,108.923607 126.065712,108.947853 137.346130,109.049812 
	C138.662247,109.061714 140.593948,109.497581 141.178375,110.414047 
	C144.177933,115.117729 148.745514,115.929916 153.686462,116.123566 
M63.247562,116.893478 
	C63.946518,115.225998 64.645470,113.558517 65.566063,111.362289 
	C62.728184,111.362289 61.055653,111.362289 59.328228,111.362289 
	C58.967865,114.298264 57.912666,117.231178 63.247562,116.893478 
M67.036575,113.476013 
	C66.787994,118.991524 70.298576,116.508614 73.039268,116.535706 
	C72.947754,114.463425 72.872787,112.765877 72.751152,110.011528 
	C70.352386,111.096085 68.698441,111.843880 67.036575,113.476013 
M62.398579,119.214737 
	C57.336315,118.890335 59.285934,122.251945 59.150002,124.853584 
	C61.198494,124.853584 62.882629,124.853584 65.736259,124.853584 
	C64.704819,122.543365 63.970074,120.897682 62.398579,119.214737 
z"/>
<path fill="#0F162F" opacity="1.000000" stroke="none" 
	d="
M52.957893,101.002213 
	C54.519276,99.335396 55.792988,97.121338 57.702827,96.117371 
	C61.504086,94.119102 63.088402,91.686714 63.600979,87.143013 
	C64.889351,75.722351 73.394188,67.567497 84.653534,65.555840 
	C95.103142,63.688866 105.473495,68.808685 111.024307,78.578957 
	C111.505569,79.426048 111.965599,80.285217 112.520378,81.292969 
	C120.220551,80.214073 126.660522,82.132874 131.659531,89.361588 
	C120.995483,89.361588 110.975128,89.361588 100.794304,89.361588 
	C97.598747,82.777245 93.522026,80.904236 86.127502,83.141479 
	C85.281258,83.403847 85.082855,83.698875 84.884445,83.993896 
	C80.211823,88.572777 79.951851,94.820992 84.257523,99.061028 
	C88.723618,103.459030 94.408394,102.819176 99.945389,97.400833 
	C101.030922,102.953659 99.099953,106.587624 94.759254,108.240799 
	C90.016647,110.047050 85.481293,108.725418 82.804283,103.987709 
	C81.423553,101.544136 79.960464,100.930954 77.402451,100.972206 
	C69.256218,101.103584 61.106354,101.009315 52.957893,101.002213 
M83.970001,76.222214 
	C77.651711,79.529572 73.859673,84.693558 73.201019,91.797783 
	C73.080009,93.102928 74.656235,94.565422 75.449051,95.955292 
	C76.306755,94.789314 77.297264,93.694550 77.974419,92.431763 
	C78.409531,91.620323 78.286263,90.530273 78.580070,89.618874 
	C80.464149,83.774185 84.234184,80.343781 90.568512,79.636795 
	C91.956337,79.481895 93.149582,77.583603 94.432442,76.488182 
	C92.936707,75.873665 91.457169,74.816689 89.940971,74.761177 
	C88.204712,74.697601 86.435898,75.523361 83.970001,76.222214 
z"/>
<path fill="#565E8A" opacity="1.000000" stroke="none" 
	d="
M52.661427,101.125916 
	C61.106354,101.009315 69.256218,101.103584 77.402451,100.972206 
	C79.960464,100.930954 81.423553,101.544136 82.804283,103.987709 
	C85.481293,108.725418 90.016647,110.047050 94.759254,108.240799 
	C99.099953,106.587624 101.030922,102.953659 100.220474,97.196228 
	C101.116539,96.058319 102.288246,95.168579 103.826447,94.744461 
	C104.330673,98.297218 104.468407,101.384361 104.628693,104.976921 
	C115.662910,104.976921 126.939079,105.006355 138.214279,104.914917 
	C139.020859,104.908379 140.098404,104.204659 140.571869,103.502655 
	C142.117676,101.210785 143.441971,98.769516 144.851456,96.385712 
	C145.174622,96.454124 145.509979,96.617012 145.819183,96.577148 
	C153.489258,95.588264 157.096649,97.022148 159.227356,101.933250 
	C161.346817,106.818428 159.945389,110.479958 153.862869,115.805901 
	C148.745514,115.929916 144.177933,115.117729 141.178375,110.414047 
	C140.593948,109.497581 138.662247,109.061714 137.346130,109.049812 
	C126.065712,108.947853 114.782997,108.923607 103.503616,109.073997 
	C101.830826,109.096306 100.038475,109.916618 98.529434,110.770622 
	C91.840866,114.555824 85.219719,113.325851 80.229431,107.636978 
	C79.032745,106.272781 76.788498,105.184296 74.980019,105.111450 
	C67.195358,104.797867 59.393555,104.909653 51.115383,104.757248 
	C51.210167,103.515182 51.787563,102.382401 52.661427,101.125916 
M153.881516,110.335541 
	C154.389862,107.955528 155.532364,105.470482 155.162247,103.235970 
	C154.949463,101.951225 152.236694,100.156990 150.738754,100.238396 
	C148.790558,100.344269 146.104401,101.651154 145.267181,103.245346 
	C144.437256,104.825668 144.877243,107.787628 145.890152,109.458763 
	C147.537766,112.177094 150.421707,112.429153 153.881516,110.335541 
z"/>
<path fill="#09102D" opacity="1.000000" stroke="none" 
	d="
M144.550262,96.165321 
	C143.441971,98.769516 142.117676,101.210785 140.571869,103.502655 
	C140.098404,104.204659 139.020859,104.908379 138.214279,104.914917 
	C126.939079,105.006355 115.662910,104.976921 104.628693,104.976921 
	C104.468407,101.384361 104.330673,98.297218 104.180054,94.838882 
	C113.148682,94.395927 122.130188,94.324181 131.783707,94.492889 
	C133.956497,94.539482 135.457275,94.345612 136.958054,94.151741 
	C139.388397,94.749474 141.818741,95.347198 144.550262,96.165321 
z"/>
<path fill="#191E36" opacity="1.000000" stroke="none" 
	d="
M92.547523,97.755249 
	C88.675896,98.178551 86.098289,96.639503 85.532768,93.278748 
	C85.243240,91.558105 86.033852,88.529984 87.242722,87.935272 
	C89.278000,86.933990 92.501480,86.480553 94.393730,87.438690 
	C98.528862,89.532494 97.641624,94.429848 92.547523,97.755249 
z"/>
<path fill="#2B2E3E" opacity="1.000000" stroke="none" 
	d="
M80.022346,152.129364 
	C80.023643,154.397461 80.023643,156.225098 80.023643,158.052750 
	C79.510628,158.089890 78.997612,158.127029 78.484596,158.164169 
	C78.092613,156.781174 77.700623,155.398163 77.376999,154.256348 
	C75.814362,154.256348 74.359390,154.256348 72.869598,154.256348 
	C72.565140,155.414871 72.219742,156.729202 71.874344,158.043518 
	C71.512413,158.029953 71.150490,158.016373 70.788559,158.002808 
	C70.788559,154.737366 70.788559,151.471939 70.788559,147.685593 
	C72.232475,148.941284 73.519012,150.060104 75.111969,151.445419 
	C76.428947,150.249969 77.790054,149.014481 80.021049,146.989365 
	C80.021049,149.247498 80.021049,150.468216 80.022346,152.129364 
z"/>
<path fill="#222535" opacity="1.000000" stroke="none" 
	d="
M106.634567,148.526794 
	C109.422447,148.687393 112.397804,148.440887 114.281891,149.756805 
	C115.315125,150.478439 115.242554,154.266754 114.302322,155.871994 
	C113.517265,157.212311 110.682495,158.094559 108.863106,157.936951 
	C104.654129,157.572388 103.679398,153.515335 106.634567,148.526794 
M113.047188,153.276749 
	C112.028061,152.102417 111.150192,150.709564 109.896019,149.898834 
	C109.559021,149.681015 107.523018,151.085892 107.272820,152.016342 
	C107.011581,152.987854 107.963646,155.264542 108.385292,155.264542 
	C109.891289,155.264526 111.397278,154.540176 113.047188,153.276749 
z"/>
<path fill="#363949" opacity="1.000000" stroke="none" 
	d="
M124.519196,151.756836 
	C123.012840,152.862213 121.416946,153.379272 120.400291,154.447586 
	C119.549377,155.341721 119.375450,156.880112 118.901749,158.133209 
	C118.469276,158.107483 118.036804,158.081741 117.604332,158.056015 
	C117.445824,154.823395 117.287315,151.590790 117.113808,148.052277 
	C120.639351,147.524551 124.125206,146.034714 124.519196,151.756836 
z"/>
<path fill="#292B37" opacity="1.000000" stroke="none" 
	d="
M130.199005,147.620087 
	C129.933990,148.765793 129.352814,149.831299 129.200211,150.111099 
	C130.122757,152.439575 130.967621,154.571976 131.812485,156.704376 
	C129.954269,157.140411 128.096039,157.576431 126.237816,158.012451 
	C126.135750,157.419678 126.033691,156.826889 125.931625,156.234116 
	C127.160187,156.013992 128.388748,155.793884 129.959656,155.512436 
	C128.550385,153.884659 127.261467,152.395905 125.972557,150.907150 
	C127.275986,149.784729 128.579422,148.662308 130.199005,147.620087 
z"/>
<path fill="#16182A" opacity="1.000000" stroke="none" 
	d="
M94.031982,154.539856 
	C94.034164,155.796310 94.034164,156.622467 94.034164,158.385300 
	C92.303558,156.430511 91.019188,154.979752 89.143929,152.861572 
	C88.968872,154.976837 88.850639,156.405548 88.732399,157.834274 
	C88.337807,157.870468 87.943207,157.906677 87.548615,157.942871 
	C87.548615,154.739090 87.548615,151.535294 87.548615,147.640289 
	C88.576599,149.244781 89.513290,150.706787 91.024200,153.065033 
	C91.844688,150.386078 92.242699,149.086548 92.640709,147.787003 
	C93.103737,147.799942 93.566772,147.812881 94.029800,147.825821 
	C94.029800,149.920395 94.029800,152.014984 94.031982,154.539856 
z"/>
<path fill="#282A3A" opacity="1.000000" stroke="none" 
	d="
M97.479836,147.624359 
	C99.627274,147.580673 101.385635,147.580673 102.617271,147.580673 
	C101.742477,151.422287 100.980728,154.767441 100.218987,158.112610 
	C99.933800,158.106812 99.648613,158.100998 99.363426,158.095200 
	C99.168098,157.106216 98.865387,156.124359 98.799088,155.126801 
	C98.646217,152.826370 99.502899,150.146072 96.287750,149.143417 
	C96.555420,148.651627 96.823097,148.159836 97.479836,147.624359 
z"/>
<path fill="#565E8A" opacity="1.000000" stroke="none" 
	d="
M136.862854,93.773193 
	C135.457275,94.345612 133.956497,94.539482 132.254150,94.452141 
	C133.624268,93.912170 135.195969,93.653404 136.862854,93.773193 
z"/>
<path fill="#EDF0F3" opacity="1.000000" stroke="none" 
	d="
M85.105797,83.952026 
	C85.082855,83.698875 85.281258,83.403847 85.733734,83.213760 
	C85.837364,83.593803 85.617149,83.790955 85.105797,83.952026 
z"/>
<path fill="#4E5785" opacity="1.000000" stroke="none" 
	d="
M62.828350,116.916306 
	C57.912666,117.231178 58.967865,114.298264 59.328228,111.362289 
	C61.055653,111.362289 62.728184,111.362289 65.566063,111.362289 
	C64.645470,113.558517 63.946518,115.225998 62.828350,116.916306 
z"/>
<path fill="#E9EEF4" opacity="1.000000" stroke="none" 
	d="
M67.040535,113.033844 
	C68.698441,111.843880 70.352386,111.096085 72.751152,110.011528 
	C72.872787,112.765877 72.947754,114.463425 73.039268,116.535706 
	C70.298576,116.508614 66.787994,118.991524 67.040535,113.033844 
z"/>
<path fill="#8586B2" opacity="1.000000" stroke="none" 
	d="
M62.816952,119.233368 
	C63.970074,120.897682 64.704819,122.543365 65.736259,124.853584 
	C62.882629,124.853584 61.198494,124.853584 59.150002,124.853584 
	C59.285934,122.251945 57.336315,118.890335 62.816952,119.233368 
z"/>
<path fill="#ECEFF3" opacity="1.000000" stroke="none" 
	d="
M84.325623,76.092468 
	C86.435898,75.523361 88.204712,74.697601 89.940971,74.761177 
	C91.457169,74.816689 92.936707,75.873665 94.432442,76.488190 
	C93.149582,77.583603 91.956337,79.481895 90.568512,79.636795 
	C84.234184,80.343781 80.464149,83.774185 78.580070,89.618874 
	C78.286263,90.530273 78.409531,91.620323 77.974419,92.431763 
	C77.297264,93.694550 76.306755,94.789314 75.449051,95.955292 
	C74.656235,94.565422 73.080009,93.102928 73.201019,91.797783 
	C73.859673,84.693558 77.651711,79.529572 84.325623,76.092468 
z"/>
<path fill="#F3F5FA" opacity="1.000000" stroke="none" 
	d="
M153.575363,110.563583 
	C150.421707,112.429153 147.537766,112.177094 145.890152,109.458763 
	C144.877243,107.787628 144.437256,104.825668 145.267181,103.245346 
	C146.104401,101.651154 148.790558,100.344269 150.738754,100.238396 
	C152.236694,100.156990 154.949463,101.951225 155.162247,103.235970 
	C155.532364,105.470482 154.389862,107.955528 153.575363,110.563583 
z"/>
<path fill="#EDF0F3" opacity="1.000000" stroke="none" 
	d="
M112.975235,153.683319 
	C111.397278,154.540176 109.891289,155.264526 108.385292,155.264542 
	C107.963646,155.264542 107.011581,152.987854 107.272820,152.016342 
	C107.523018,151.085892 109.559021,149.681015 109.896019,149.898834 
	C111.150192,150.709564 112.028061,152.102417 112.975235,153.683319 
z"/>
</svg>